#N canvas 543 101 621 542 10;
#X obj 206 517 dac~;
#X obj 22 230 subs/theosc;
#X obj 13 91 subs/simple_clock;
#X obj 127 90 bng 15 250 50 0 empty empty empty 17 7 0 10 -262144 -1
-1;
#X obj 110 14 loadbang;
#X msg 15 58 0;
#X obj 63 16 bng 15 250 50 0 empty empty empty 17 7 0 10 -262144 -1
-1;
#X obj 210 182 tgl 15 0 empty empty empty 17 7 0 10 -262144 -1 -1 0
1;
#X msg 47 197 0;
#X obj 153 102 hsl 128 15 0 127 0 0 empty empty empty -2 -8 0 10 -262144
-1 -1 0 1;
#X floatatom 162 132 5 0 0 0 - - -, f 5;
#X msg 135 55 45;
#X obj 46 261 subs/adsr;
#X obj 22 298 *~;
#X obj 222 415 subs/mixer, f 19;
#X obj 18 165 subs/scale;
#X obj 163 319 subs/osc2;
#X obj 192 489 writesf~ 2;
#X msg 363 444 start;
#X msg 363 469 stop;
#X text 398 470 STOP!;
#X msg 276 439 open test.wav;
#X obj 211 212 subs/noiser 18500 44;
#X obj 311 262 subs/rndnoise;
#X obj 314 323 subs/sampler;
#X obj 401 262 subs/rndnoise;
#X connect 1 0 13 0;
#X connect 2 0 15 1;
#X connect 2 1 3 0;
#X connect 4 0 2 1;
#X connect 4 0 11 0;
#X connect 5 0 2 0;
#X connect 6 0 2 1;
#X connect 6 0 11 0;
#X connect 7 0 22 0;
#X connect 8 0 1 0;
#X connect 9 0 10 0;
#X connect 9 0 15 0;
#X connect 11 0 2 2;
#X connect 12 0 13 1;
#X connect 13 0 14 0;
#X connect 14 0 0 0;
#X connect 14 0 0 1;
#X connect 14 0 17 0;
#X connect 14 0 17 1;
#X connect 15 0 1 0;
#X connect 15 0 12 0;
#X connect 15 0 16 0;
#X connect 16 0 14 1;
#X connect 18 0 17 0;
#X connect 19 0 17 0;
#X connect 21 0 17 0;
#X connect 22 0 14 2;
#X connect 23 0 14 3;
#X connect 24 0 14 4;
#X connect 24 2 14 5;
#X connect 24 4 14 6;
#X connect 25 0 14 7;
