#N canvas 374 332 818 329 10;
#X obj 43 28 r r;
#X obj -3 106 pack 0 0;
#X obj 85 192 0;
#X obj 85 234 line~;
#X obj 86 272 outlet~;
#X obj 97 9 inlet;
#X obj 96 40 sel 0;
#X obj 129 72 t b b b;
#X msg 84 80 stop;
#X obj 124 131 pack 1 0;
#X obj 243 26 r a;
#X obj 282 26 r d;
#X obj 318 27 r s;
#X obj 244 64 + 1;
#X obj 243 105 delay;
#X obj 245 142 pack 0 0 0;
#X obj 246 182 route 0;
#X text 21 129 Release;
#X text 121 159 Attack;
#X text 321 151 Decay;
#X obj 459 36 vsl 15 128 0 1 0 0 empty empty empty 0 -9 0 10 -262144
-1 -1 3810 1;
#X obj 494 36 vsl 15 128 0 1 0 0 empty empty empty 0 -9 0 10 -262144
-1 -1 0 1;
#X obj 535 36 vsl 15 128 0 1 0 0 empty empty empty 0 -9 0 10 -262144
-1 -1 0 1;
#X obj 570 36 vsl 15 128 0 1 0 0 empty empty empty 0 -9 0 10 -262144
-1 -1 0 1;
#X text 460 18 A;
#X text 495 18 D;
#X text 535 18 S;
#X text 571 18 R;
#X obj 446 181 - 10;
#X obj 481 181 - 10;
#X obj 518 181 - 0.1;
#X obj 559 181 - 10;
#X obj 446 210 s a;
#X obj 481 211 s d;
#X obj 518 210 s s;
#X obj 559 210 s r;
#X obj 368 8 loadbang;
#X msg 423 38 0.3;
#X connect 0 0 1 1;
#X connect 1 0 3 0;
#X connect 2 0 3 0;
#X connect 3 0 4 0;
#X connect 5 0 6 0;
#X connect 6 0 8 0;
#X connect 6 0 1 0;
#X connect 6 1 7 0;
#X connect 7 0 14 0;
#X connect 7 1 9 0;
#X connect 8 0 14 0;
#X connect 9 0 3 0;
#X connect 10 0 13 0;
#X connect 10 0 9 1;
#X connect 11 0 15 2;
#X connect 12 0 15 1;
#X connect 13 0 14 1;
#X connect 14 0 15 0;
#X connect 15 0 16 0;
#X connect 16 0 3 0;
#X connect 20 0 28 0;
#X connect 21 0 29 0;
#X connect 22 0 30 0;
#X connect 23 0 31 0;
#X connect 28 0 32 0;
#X connect 29 0 33 0;
#X connect 30 0 34 0;
#X connect 31 0 35 0;
#X connect 36 0 37 0;
#X connect 37 0 20 0;
#X connect 37 0 21 0;
#X connect 37 0 22 0;
#X connect 37 0 23 0;
