#N canvas 63 318 1176 444 10;
#X obj 47 80 vsl 15 120 0 10 0 0 empty empty empty 0 -9 0 10 -262144
-1 -1 0 1;
#X obj 79 79 vu 15 120 empty empty -1 -8 0 10 -66577 -1 1 0;
#X obj 12 210 env~;
#X obj 63 209 - 100;
#X obj 176 78 vsl 15 120 0 10 0 0 empty empty empty 0 -9 0 10 -262144
-1 -1 0 1;
#X obj 208 78 vu 15 120 empty empty -1 -8 0 10 -66577 -1 1 0;
#X obj 141 209 env~;
#X obj 192 208 - 100;
#X obj 309 79 vsl 15 120 0 10 0 0 empty empty empty 0 -9 0 10 -262144
-1 -1 0 1;
#X obj 341 78 vu 15 120 empty empty -1 -8 0 10 -66577 -1 1 0;
#X obj 274 209 env~;
#X obj 325 208 - 100;
#X obj 440 78 vsl 15 120 0 10 0 0 empty empty empty 0 -9 0 10 -262144
-1 -1 0 1;
#X obj 470 77 vu 15 120 empty empty -1 -8 0 10 -66577 -1 1 0;
#X obj 403 208 env~;
#X obj 454 207 - 100;
#X obj 569 77 vsl 15 120 0 10 0 0 empty empty empty 0 -9 0 10 -262144
-1 -1 0 1;
#X obj 601 76 vu 15 120 empty empty -1 -8 0 10 -66577 -1 1 0;
#X obj 534 207 env~;
#X obj 585 206 - 100;
#X obj 698 76 vsl 15 120 0 10 0 0 empty empty empty 0 -9 0 10 -262144
-1 -1 0 1;
#X obj 730 75 vu 15 120 empty empty -1 -8 0 10 -66577 -1 1 0;
#X obj 663 206 env~;
#X obj 714 205 - 100;
#X obj 832 74 vsl 15 120 0 10 0 0 empty empty empty 0 -9 0 10 -262144
-1 -1 0 1;
#X obj 863 75 vu 15 120 empty empty -1 -8 0 10 -66577 -1 1 0;
#X obj 796 206 env~;
#X obj 847 205 - 100;
#X obj 960 75 vsl 15 120 0 10 0 0 empty empty empty 0 -9 0 10 -262144
-1 -1 0 1;
#X obj 992 74 vu 15 120 empty empty -1 -8 0 10 -66577 -1 1 0;
#X obj 925 205 env~;
#X obj 976 204 - 100;
#X obj 1092 75 vsl 15 120 0 10 0 0 empty empty empty 0 -9 0 10 -262144
-1 -1 0 1;
#X obj 1123 75 vu 15 120 empty empty -1 -8 0 10 -66577 -1 1 0;
#X obj 1056 206 env~;
#X obj 1107 205 - 100;
#X obj 1100 269 outlet~;
#X obj 924 28 inlet~;
#X obj 11 26 inlet~;
#X obj 140 24 inlet~;
#X obj 273 24 inlet~;
#X obj 404 23 inlet~;
#X obj 534 23 inlet~;
#X obj 662 25 inlet~;
#X obj 795 27 inlet~;
#X obj 14 294 hsl 80 15 0 1 0 0 empty empty empty -2 -8 0 10 -262144
-1 -1 0 1;
#X obj 542 356 jon, f 6;
#X obj 143 294 hsl 80 15 0 2 0 0 empty empty empty -2 -8 0 10 -262144
-1 -1 0 1;
#X obj 273 51 *~;
#X obj 404 50 *~;
#X obj 534 50 *~;
#X obj 11 53 *~;
#X obj 140 51 *~;
#X obj 662 52 *~;
#X obj 795 54 *~;
#X obj 924 55 *~;
#X obj 1055 75 *~;
#X obj 12 263 *~;
#X obj 141 263 *~;
#X obj 276 294 hsl 80 15 0 1 0 0 empty empty empty -2 -8 0 10 -262144
-1 -1 0 1;
#X obj 274 262 *~;
#X obj 406 293 hsl 80 15 0 1 0 0 empty empty empty -2 -8 0 10 -262144
-1 -1 0 1;
#X obj 404 261 *~;
#X obj 535 293 hsl 80 15 0 1 0 0 empty empty empty -2 -8 0 10 -262144
-1 -1 0 1;
#X obj 533 261 *~;
#X obj 667 293 hsl 80 15 0 1 0 0 empty empty empty -2 -8 0 10 -262144
-1 -1 0 1;
#X obj 665 261 *~;
#X obj 798 293 hsl 80 15 0 1 0 0 empty empty empty -2 -8 0 10 -262144
-1 -1 0 1;
#X obj 796 261 *~;
#X obj 930 293 hsl 80 15 0 1 0 0 empty empty empty -2 -8 0 10 -262144
-1 -1 0 1;
#X obj 928 261 *~;
#X text 1096 40 MASTER;
#X text 57 9 OSC1;
#X text 207 7 OSC2;
#X text 325 4 NOISE1;
#X text 456 5 RNDNOISE;
#X text 586 4 SAMPLER1;
#X text 698 4 SAMPLER2;
#X text 839 4 SAMPLER3;
#X text 981 3 RNDNOISE;
#X connect 0 0 51 1;
#X connect 2 0 3 0;
#X connect 3 0 1 0;
#X connect 4 0 52 1;
#X connect 6 0 7 0;
#X connect 7 0 5 0;
#X connect 8 0 48 1;
#X connect 10 0 11 0;
#X connect 11 0 9 0;
#X connect 12 0 49 1;
#X connect 14 0 15 0;
#X connect 15 0 13 0;
#X connect 16 0 50 1;
#X connect 18 0 19 0;
#X connect 19 0 17 0;
#X connect 20 0 53 1;
#X connect 22 0 23 0;
#X connect 23 0 21 0;
#X connect 24 0 54 1;
#X connect 26 0 27 0;
#X connect 27 0 25 0;
#X connect 28 0 55 1;
#X connect 30 0 31 0;
#X connect 31 0 29 0;
#X connect 32 0 56 1;
#X connect 34 0 35 0;
#X connect 35 0 33 0;
#X connect 37 0 55 0;
#X connect 37 0 70 0;
#X connect 38 0 51 0;
#X connect 38 0 57 0;
#X connect 39 0 52 0;
#X connect 40 0 48 0;
#X connect 40 0 60 0;
#X connect 41 0 49 0;
#X connect 41 0 62 0;
#X connect 42 0 50 0;
#X connect 42 0 64 0;
#X connect 43 0 53 0;
#X connect 43 0 66 0;
#X connect 44 0 54 0;
#X connect 44 0 68 0;
#X connect 45 0 57 1;
#X connect 46 0 56 0;
#X connect 47 0 58 1;
#X connect 48 0 10 0;
#X connect 48 0 56 0;
#X connect 49 0 14 0;
#X connect 49 0 56 0;
#X connect 50 0 18 0;
#X connect 50 0 56 0;
#X connect 51 0 2 0;
#X connect 51 0 56 0;
#X connect 52 0 6 0;
#X connect 52 0 56 0;
#X connect 52 0 58 0;
#X connect 53 0 22 0;
#X connect 53 0 56 0;
#X connect 54 0 26 0;
#X connect 54 0 56 0;
#X connect 55 0 30 0;
#X connect 55 0 56 0;
#X connect 56 0 34 0;
#X connect 56 0 36 0;
#X connect 57 0 46 0;
#X connect 58 0 46 0;
#X connect 59 0 60 1;
#X connect 60 0 46 0;
#X connect 61 0 62 1;
#X connect 62 0 46 0;
#X connect 63 0 64 1;
#X connect 64 0 46 0;
#X connect 65 0 66 1;
#X connect 66 0 46 0;
#X connect 67 0 68 1;
#X connect 68 0 46 0;
#X connect 69 0 70 1;
#X connect 70 0 46 0;
