#N canvas 576 166 558 421 10;
#X obj 70 120 noise~;
#X obj 133 201 *~;
#X obj 151 174 vline~;
#X obj 93 174 vline~;
#X obj 170 333 outlet~;
#X msg 93 147 \$1 10;
#X msg 151 147 \$1 \, 0 5;
#X obj 70 93 random \$1;
#X obj 70 41 metro;
#X obj 69 201 vcf~ \$2;
#X obj 114 41 inlet;
#X obj 81 67 random;
#X obj 151 93 random 50;
#X obj 31 14 tgl 15 0 empty empty empty 17 7 0 10 -262144 -1 -1 0 1
;
#X obj 195 225 mtof;
#X obj 195 201 nbx 5 14 -1e+37 1e+37 0 1 empty empty empty 0 -8 0 10
-262144 -1 -1 55 256;
#X obj 173 251 vcf~ 300;
#X obj 382 254 vu 15 120 empty empty -1 -8 0 10 -66577 -1 1 0;
#X obj 287 272 env~;
#X obj 281 322 - 100;
#X obj 241 284 vsl 15 50 0 10 0 0 empty empty empty 0 -9 0 10 -262144
-1 -1 0 1;
#X obj 171 282 *~ 5;
#X obj 8 36 inlet;
#X connect 0 0 9 0;
#X connect 1 0 16 0;
#X connect 2 0 1 1;
#X connect 3 0 9 1;
#X connect 5 0 3 0;
#X connect 6 0 2 0;
#X connect 7 0 5 0;
#X connect 8 0 7 0;
#X connect 8 0 11 0;
#X connect 8 0 12 0;
#X connect 9 1 1 0;
#X connect 10 0 11 1;
#X connect 11 0 8 1;
#X connect 12 0 6 0;
#X connect 13 0 8 0;
#X connect 14 0 16 1;
#X connect 15 0 14 0;
#X connect 16 0 21 0;
#X connect 18 0 19 0;
#X connect 19 0 17 0;
#X connect 20 0 21 1;
#X connect 21 0 18 0;
#X connect 21 0 4 0;
#X connect 22 0 8 0;
