#N canvas 503 77 556 344 10;
#X obj 269 65 osc~ 440;
#X obj 270 107 *~;
#X obj 271 139 *~ 0.1;
#X obj 171 158 env~;
#X obj 171 181 - 100;
#X obj 171 207 s to LVU;
#X obj 27 187 vu 15 120 empty empty -1 -8 0 10 -66577 -1 1 0;
#X obj 26 155 r to LVU;
#X obj 100 188 vu 15 120 empty empty -1 -8 0 10 -66577 -1 1 0;
#X obj 99 156 r to RVU;
#X obj 350 64 osc~ 2;
#X obj 351 89 *~;
#X obj 407 74 hsl 20 15 0 1 0 0 empty empty empty -2 -8 0 10 -262144
-1 -1 0 1;
#X obj 408 49 hsl 128 15 0 10 0 0 empty empty empty -2 -8 0 10 -262144
-1 -1 0 1;
#X obj 271 208 outlet~;
#X obj 269 13 inlet;
#X obj 269 39 mtof;
#X connect 0 0 1 0;
#X connect 1 0 2 0;
#X connect 2 0 3 0;
#X connect 2 0 14 0;
#X connect 3 0 4 0;
#X connect 4 0 5 0;
#X connect 7 0 6 0;
#X connect 9 0 8 0;
#X connect 10 0 11 0;
#X connect 11 0 1 1;
#X connect 12 0 11 1;
#X connect 13 0 10 0;
#X connect 15 0 16 0;
#X connect 16 0 0 0;
