#N canvas 70 65 1138 649 10;
#X obj 123 28 openpanel;
#X obj 128 384 outlet~;
#X obj 123 5 bng 15 250 50 0 empty empty empty 17 7 0 10 -262144 -1
-1;
#N canvas 0 50 450 250 (subpatch) 0;
#X array chL1 241664 float 2;
#X coords 0 1 241664 -1 200 140 1 0 0;
#X restore 83 445 graph;
#N canvas 0 50 450 250 (subpatch) 0;
#X array chR1 241664 float 2;
#X coords 0 1 241664 -1 200 140 1 0 0;
#X restore 302 447 graph;
#X obj 123 81 soundfiler;
#X floatatom 196 82 12 0 0 0 - - -, f 12;
#X obj 123 131 expr 44100 / $f1;
#X floatatom 148 156 12 0 0 0 - - -, f 12;
#X obj 123 181 phasor~;
#X obj 124 209 *~;
#X obj 183 384 outlet~;
#X obj 127 351 *~;
#X obj 183 351 *~;
#X obj 399 179 vsl 15 140 0 1 0 0 empty empty empty 0 -9 0 10 -262144
-1 -1 1300 1;
#X obj 223 297 snapshot~;
#X obj 223 274 metro 50;
#X obj 281 275 tgl 15 0 empty empty empty 17 7 0 10 -262144 -1 -1 1
1;
#X floatatom 288 297 12 0 0 0 - - -, f 12;
#X obj 223 320 /;
#X floatatom 334 319 5 0 0 0 - - -, f 5;
#X obj 307 403 hsl 195 15 0 1 0 0 empty empty empty -2 -8 0 10 -262144
-1 -1 0 1;
#X obj 347 18 hsl 128 15 0 1 0 0 empty empty empty -2 -8 0 10 -262144
-1 -1 579 1;
#X floatatom 344 48 10 0 0 0 - - -, f 10;
#X text 343 0 Speed;
#X text 352 177 Volume;
#X msg 60 135 0;
#X obj 49 96 t b b;
#X msg 179 203 0;
#X obj 49 71 bng 15 250 50 0 empty empty empty 17 7 0 10 -262144 -1
-1;
#X msg 335 105 \$1;
#X obj 370 103 / 2;
#X floatatom 405 100 5 0 0 0 - - -, f 5;
#X msg 294 16 \$1;
#X floatatom 294 47 5 0 0 0 - - -, f 5;
#X obj 250 12 bng 15 250 50 0 empty empty empty 17 7 0 10 -262144 -1
-1;
#X obj 406 78 bng 15 250 50 0 empty empty empty 17 7 0 10 -262144 -1
-1;
#X obj 371 139 / 4;
#X floatatom 404 143 5 0 0 0 - - -, f 5;
#X obj 405 119 bng 15 250 50 0 empty empty empty 17 7 0 10 -262144
-1 -1;
#X msg 123 53 read -resize \$1 chL1 chR1;
#X obj 217 228 tabread4~ chL1;
#X obj 217 252 tabread4~ chR1;
#X obj 573 32 openpanel;
#X obj 578 388 outlet~;
#X obj 573 9 bng 15 250 50 0 empty empty empty 17 7 0 10 -262144 -1
-1;
#N canvas 0 50 450 250 (subpatch) 0;
#X array chL2 262836 float 2;
#X coords 0 1 262836 -1 200 140 1 0 0;
#X restore 533 449 graph;
#N canvas 0 50 450 250 (subpatch) 0;
#X array chR2 262836 float 2;
#X coords 0 1 262836 -1 200 140 1 0 0;
#X restore 752 451 graph;
#X obj 573 85 soundfiler;
#X floatatom 646 86 12 0 0 0 - - -, f 12;
#X floatatom 598 160 12 0 0 0 - - -, f 12;
#X obj 573 185 phasor~;
#X obj 574 213 *~;
#X obj 633 388 outlet~;
#X obj 577 355 *~;
#X obj 633 355 *~;
#X obj 849 183 vsl 15 140 0 1 0 0 empty empty empty 0 -9 0 10 -262144
-1 -1 1400 1;
#X obj 673 301 snapshot~;
#X obj 673 278 metro 50;
#X obj 731 279 tgl 15 0 empty empty empty 17 7 0 10 -262144 -1 -1 1
1;
#X floatatom 738 301 12 0 0 0 - - -, f 12;
#X obj 673 324 /;
#X floatatom 788 323 5 0 0 0 - - -, f 5;
#X obj 754 408 hsl 195 15 0 1 0 0 empty empty empty -2 -8 0 10 -262144
-1 -1 0 1;
#X obj 797 22 hsl 128 15 0 1 0 0 empty empty empty -2 -8 0 10 -262144
-1 -1 533 1;
#X floatatom 794 52 10 0 0 0 - - -, f 10;
#X text 793 4 Speed;
#X text 802 181 Volume;
#X msg 510 139 0;
#X obj 499 100 t b b;
#X msg 629 207 0;
#X obj 499 75 bng 15 250 50 0 empty empty empty 17 7 0 10 -262144 -1
-1;
#X obj 820 107 / 2;
#X floatatom 855 104 5 0 0 0 - - -, f 5;
#X floatatom 744 51 5 0 0 0 - - -, f 5;
#X obj 700 16 bng 15 250 50 0 empty empty empty 17 7 0 10 -262144 -1
-1;
#X obj 856 82 bng 15 250 50 0 empty empty empty 17 7 0 10 -262144 -1
-1;
#X obj 821 143 / 4;
#X floatatom 854 147 5 0 0 0 - - -, f 5;
#X obj 855 123 bng 15 250 50 0 empty empty empty 17 7 0 10 -262144
-1 -1;
#X obj 667 232 tabread4~ chL2;
#X obj 667 256 tabread4~ chR2;
#X obj 1062 34 openpanel;
#X obj 1067 390 outlet~;
#X obj 1062 11 bng 15 250 50 0 empty empty empty 17 7 0 10 -262144
-1 -1;
#N canvas 0 50 450 250 (subpatch) 0;
#X array chL3 1.79803e+06 float 2;
#X coords 0 1 1.79803e+06 -1 200 140 1 0 0;
#X restore 1022 451 graph;
#N canvas 0 50 450 250 (subpatch) 0;
#X array chR3 1.79803e+06 float 2;
#X coords 0 1 1.79803e+06 -1 200 140 1 0 0;
#X restore 1241 453 graph;
#X obj 1062 87 soundfiler;
#X floatatom 1135 88 12 0 0 0 - - -, f 12;
#X floatatom 1087 162 12 0 0 0 - - -, f 12;
#X obj 1062 187 phasor~;
#X obj 1063 215 *~;
#X obj 1122 390 outlet~;
#X obj 1066 357 *~;
#X obj 1122 357 *~;
#X obj 1338 185 vsl 15 140 0 1 0 0 empty empty empty 0 -9 0 10 -262144
-1 -1 0 1;
#X obj 1162 303 snapshot~;
#X obj 1162 280 metro 50;
#X obj 1220 281 tgl 15 0 empty empty empty 17 7 0 10 -262144 -1 -1
0 1;
#X floatatom 1227 303 12 0 0 0 - - -, f 12;
#X obj 1162 326 /;
#X floatatom 1273 325 5 0 0 0 - - -, f 5;
#X obj 1246 409 hsl 195 15 0 1 0 0 empty empty empty -2 -8 0 10 -262144
-1 -1 0 1;
#X obj 1286 24 hsl 128 15 0 1 0 0 empty empty empty -2 -8 0 10 -262144
-1 -1 0 1;
#X floatatom 1283 54 10 0 0 0 - - -, f 10;
#X text 1282 6 Speed;
#X text 1291 183 Volume;
#X msg 999 141 0;
#X obj 988 102 t b b;
#X msg 1118 209 0;
#X obj 988 77 bng 15 250 50 0 empty empty empty 17 7 0 10 -262144 -1
-1;
#X obj 1309 109 / 2;
#X floatatom 1344 106 5 0 0 0 - - -, f 5;
#X floatatom 1233 53 5 0 0 0 - - -, f 5;
#X obj 1189 18 bng 15 250 50 0 empty empty empty 17 7 0 10 -262144
-1 -1;
#X obj 1345 84 bng 15 250 50 0 empty empty empty 17 7 0 10 -262144
-1 -1;
#X obj 1310 145 / 4;
#X floatatom 1343 149 5 0 0 0 - - -, f 5;
#X obj 1344 125 bng 15 250 50 0 empty empty empty 17 7 0 10 -262144
-1 -1;
#X obj 1156 233 tabread4~ chL3;
#X obj 1156 258 tabread4~ chR3;
#X obj 1524 40 openpanel;
#X obj 1529 396 outlet~;
#X obj 1524 17 bng 15 250 50 0 empty empty empty 17 7 0 10 -262144
-1 -1;
#N canvas 0 50 450 250 (subpatch) 0;
#X array chL4 220416 float 2;
#X coords 0 1 220416 -1 200 140 1 0 0;
#X restore 1484 457 graph;
#N canvas 0 50 450 250 (subpatch) 0;
#X array chR4 220416 float 2;
#X coords 0 1 220416 -1 200 140 1 0 0;
#X restore 1703 459 graph;
#X obj 1524 93 soundfiler;
#X floatatom 1597 94 12 0 0 0 - - -, f 12;
#X obj 1524 143 expr 44100 / $f1;
#X floatatom 1549 168 12 0 0 0 - - -, f 12;
#X obj 1524 193 phasor~;
#X obj 1525 221 *~;
#X obj 1584 396 outlet~;
#X obj 1528 363 *~;
#X obj 1584 363 *~;
#X obj 1800 191 vsl 15 140 0 1 0 0 empty empty empty 0 -9 0 10 -262144
-1 -1 0 1;
#X obj 1624 309 snapshot~;
#X obj 1624 286 metro 50;
#X obj 1682 287 tgl 15 0 empty empty empty 17 7 0 10 -262144 -1 -1
0 1;
#X floatatom 1689 309 12 0 0 0 - - -, f 12;
#X obj 1624 332 /;
#X floatatom 1735 331 5 0 0 0 - - -, f 5;
#X obj 1708 415 hsl 195 15 0 1 0 0 empty empty empty -2 -8 0 10 -262144
-1 -1 0 1;
#X obj 1748 30 hsl 128 15 0 1 0 0 empty empty empty -2 -8 0 10 -262144
-1 -1 0 1;
#X floatatom 1745 60 10 0 0 0 - - -, f 10;
#X text 1744 12 Speed;
#X text 1753 189 Volume;
#X msg 1461 147 0;
#X obj 1450 108 t b b;
#X msg 1580 215 0;
#X obj 1450 83 bng 15 250 50 0 empty empty empty 17 7 0 10 -262144
-1 -1;
#X obj 1771 115 / 2;
#X floatatom 1806 112 5 0 0 0 - - -, f 5;
#X floatatom 1695 59 5 0 0 0 - - -, f 5;
#X obj 1651 24 bng 15 250 50 0 empty empty empty 17 7 0 10 -262144
-1 -1;
#X obj 1807 90 bng 15 250 50 0 empty empty empty 17 7 0 10 -262144
-1 -1;
#X obj 1772 151 / 4;
#X floatatom 1805 155 5 0 0 0 - - -, f 5;
#X obj 1806 131 bng 15 250 50 0 empty empty empty 17 7 0 10 -262144
-1 -1;
#X obj 1618 239 tabread4~ chL4;
#X obj 1618 264 tabread4~ chR4;
#X obj 1062 137 expr 44100 / $f1;
#X obj 573 135 expr 44100 / $f1;
#X obj 251 319 r sampleSize1;
#X obj 701 323 r sampleSize2;
#X obj 1189 325 r sampleSize3;
#X obj 1651 350 r sampleSize4;
#X obj 630 184 r sampleSize2;
#X obj 180 180 r sampleSize1;
#X obj 1119 186 r sampleSize3;
#X obj 1581 192 r sampleSize4;
#X obj 196 109 s sampleSize1;
#X obj 646 113 s sampleSize2;
#X obj 1135 115 s sampleSize3;
#X obj 1597 121 s sampleSize4;
#X msg 743 21 \$1;
#X msg 785 109 \$1;
#X msg 573 57 read -resize \$1 chL2 chR2;
#X msg 1062 59 read -resize \$1 chL3 chR3;
#X msg 1233 22 \$1;
#X msg 1274 111 \$1;
#X msg 1524 65 read -resize \$1 chL4 chR4;
#X msg 1695 28 \$1;
#X msg 1736 117 \$1;
#X connect 0 0 40 0;
#X connect 2 0 0 0;
#X connect 5 0 6 0;
#X connect 5 0 7 0;
#X connect 6 0 171 0;
#X connect 7 0 8 0;
#X connect 7 0 9 0;
#X connect 8 0 33 0;
#X connect 8 0 22 0;
#X connect 8 0 30 0;
#X connect 9 0 10 0;
#X connect 10 0 15 0;
#X connect 10 0 41 0;
#X connect 10 0 42 0;
#X connect 12 0 1 0;
#X connect 13 0 11 0;
#X connect 14 0 12 1;
#X connect 14 0 13 1;
#X connect 15 0 18 0;
#X connect 16 0 15 0;
#X connect 17 0 16 0;
#X connect 18 0 19 0;
#X connect 19 0 20 0;
#X connect 20 0 21 0;
#X connect 22 0 23 0;
#X connect 23 0 9 0;
#X connect 26 0 9 0;
#X connect 27 0 28 0;
#X connect 27 1 26 0;
#X connect 28 0 9 1;
#X connect 29 0 27 0;
#X connect 30 0 31 0;
#X connect 30 0 37 0;
#X connect 31 0 32 0;
#X connect 32 0 22 0;
#X connect 33 0 34 0;
#X connect 34 0 22 0;
#X connect 35 0 34 0;
#X connect 36 0 32 0;
#X connect 37 0 38 0;
#X connect 38 0 22 0;
#X connect 39 0 38 0;
#X connect 40 0 5 0;
#X connect 41 0 12 0;
#X connect 42 0 13 0;
#X connect 43 0 177 0;
#X connect 45 0 43 0;
#X connect 48 0 49 0;
#X connect 48 0 162 0;
#X connect 49 0 172 0;
#X connect 50 0 175 0;
#X connect 50 0 64 0;
#X connect 50 0 176 0;
#X connect 51 0 52 0;
#X connect 52 0 57 0;
#X connect 52 0 80 0;
#X connect 52 0 81 0;
#X connect 54 0 44 0;
#X connect 55 0 53 0;
#X connect 56 0 54 1;
#X connect 56 0 55 1;
#X connect 57 0 60 0;
#X connect 58 0 57 0;
#X connect 59 0 58 0;
#X connect 60 0 61 0;
#X connect 61 0 62 0;
#X connect 62 0 63 0;
#X connect 64 0 65 0;
#X connect 65 0 51 0;
#X connect 68 0 51 0;
#X connect 69 0 70 0;
#X connect 69 1 68 0;
#X connect 70 0 51 1;
#X connect 71 0 69 0;
#X connect 72 0 73 0;
#X connect 73 0 64 0;
#X connect 74 0 64 0;
#X connect 75 0 74 0;
#X connect 76 0 73 0;
#X connect 77 0 78 0;
#X connect 78 0 64 0;
#X connect 79 0 78 0;
#X connect 80 0 54 0;
#X connect 81 0 55 0;
#X connect 82 0 178 0;
#X connect 84 0 82 0;
#X connect 87 0 88 0;
#X connect 87 0 161 0;
#X connect 88 0 173 0;
#X connect 89 0 179 0;
#X connect 89 0 103 0;
#X connect 89 0 180 0;
#X connect 90 0 91 0;
#X connect 91 0 96 0;
#X connect 91 0 119 0;
#X connect 91 0 120 0;
#X connect 93 0 83 0;
#X connect 94 0 92 0;
#X connect 95 0 93 1;
#X connect 95 0 94 1;
#X connect 96 0 99 0;
#X connect 97 0 96 0;
#X connect 98 0 97 0;
#X connect 99 0 100 0;
#X connect 100 0 101 0;
#X connect 101 0 102 0;
#X connect 103 0 104 0;
#X connect 104 0 90 0;
#X connect 107 0 90 0;
#X connect 108 0 109 0;
#X connect 108 1 107 0;
#X connect 109 0 90 1;
#X connect 110 0 108 0;
#X connect 111 0 112 0;
#X connect 112 0 103 0;
#X connect 113 0 103 0;
#X connect 114 0 113 0;
#X connect 115 0 112 0;
#X connect 116 0 117 0;
#X connect 117 0 103 0;
#X connect 118 0 117 0;
#X connect 119 0 93 0;
#X connect 120 0 94 0;
#X connect 121 0 181 0;
#X connect 123 0 121 0;
#X connect 126 0 127 0;
#X connect 126 0 128 0;
#X connect 127 0 174 0;
#X connect 128 0 129 0;
#X connect 128 0 130 0;
#X connect 129 0 182 0;
#X connect 129 0 143 0;
#X connect 129 0 183 0;
#X connect 130 0 131 0;
#X connect 131 0 136 0;
#X connect 131 0 159 0;
#X connect 131 0 160 0;
#X connect 133 0 122 0;
#X connect 134 0 132 0;
#X connect 135 0 133 1;
#X connect 135 0 134 1;
#X connect 136 0 139 0;
#X connect 137 0 136 0;
#X connect 138 0 137 0;
#X connect 139 0 140 0;
#X connect 140 0 141 0;
#X connect 141 0 142 0;
#X connect 143 0 144 0;
#X connect 144 0 130 0;
#X connect 147 0 130 0;
#X connect 148 0 149 0;
#X connect 148 1 147 0;
#X connect 149 0 130 1;
#X connect 150 0 148 0;
#X connect 151 0 152 0;
#X connect 152 0 143 0;
#X connect 153 0 143 0;
#X connect 154 0 153 0;
#X connect 155 0 152 0;
#X connect 156 0 157 0;
#X connect 157 0 143 0;
#X connect 158 0 157 0;
#X connect 159 0 133 0;
#X connect 160 0 134 0;
#X connect 161 0 89 0;
#X connect 161 0 90 0;
#X connect 162 0 50 0;
#X connect 162 0 51 0;
#X connect 163 0 19 1;
#X connect 164 0 61 1;
#X connect 165 0 100 1;
#X connect 166 0 140 1;
#X connect 167 0 52 1;
#X connect 168 0 10 1;
#X connect 169 0 91 1;
#X connect 170 0 131 1;
#X connect 175 0 74 0;
#X connect 176 0 72 0;
#X connect 176 0 77 0;
#X connect 177 0 48 0;
#X connect 178 0 87 0;
#X connect 179 0 113 0;
#X connect 180 0 111 0;
#X connect 180 0 116 0;
#X connect 181 0 126 0;
#X connect 182 0 153 0;
#X connect 183 0 151 0;
#X connect 183 0 156 0;
