#N canvas 38 99 876 648 10;
#X obj 72 439 +;
#X floatatom 149 411 5 0 0 0 - - -, f 5;
#X obj 208 111 t b f;
#X text 187 402 root note for the \; scale (62 = D4);
#N canvas 859 403 311 207 other_scales 1;
#X msg 24 29 0 2 4 5 7 9 11 12;
#X text 153 30 major;
#X msg 24 61 0 2 3 5 7 9 11 12;
#X msg 23 99 0 2 3 5 7 8 11 12;
#X text 153 62 minor ascending melodic;
#X text 152 100 minor harmonic;
#X text 154 137 lydian;
#X msg 23 135 0 2 4 6 7 9 11 12;
#X msg 22 169 0 2 3 5 7 9 10 12;
#X text 156 169 dorian;
#X restore 344 443 pd other_scales;
#X obj 208 76 nbx 4 16 -1e+37 1e+37 0 0 empty empty empty 0 -8 0 12
-262130 -4160 -1 1 256;
#N canvas 0 57 450 250 (subpatch) 0;
#X array arraysc 8 float 3;
#A 0 0 2 4 5 7 9 11 12;
#X coords 0 1 8 -1 200 140 1;
#X restore 492 50 graph;
#X obj 78 348 tabread arraysc;
#X floatatom 280 370 5 0 0 0 - - -, f 5;
#X msg 213 339 3;
#X msg 100 255 set arraysc;
#X obj 302 262 random 8;
#X obj 325 181 loadbang;
#X obj 244 195 bng 15 250 50 0 empty empty empty 17 7 0 10 -262144
-1 -1;
#X obj 208 33 inlet;
#X obj 66 526 outlet;
#X msg 13 177 \; arraysc 0 0 2 4 5 7 9 11 0;
#X obj 220 235 inlet;
#X msg 210 277;
#X obj 198 374 inlet;
#X msg 464 284 \; arraysc 0 0 2 4 5 7 9 11 12;
#X msg 465 325 \; arraysc 0 0 2 3 5 7 9 11 12;
#X msg 465 364 \; arraysc 0 0 2 3 5 7 8 11 12;
#X msg 650 285 \; arraysc 0 0 2 4 6 7 9 11 12;
#X msg 651 325 \; arraysc 0 0 2 3 5 7 9 10 12;
#X msg 651 365 \; arraysc 0 0 1 0 1 0 1 0 1;
#X connect 0 0 15 0;
#X connect 1 0 0 1;
#X connect 2 0 18 0;
#X connect 5 0 13 0;
#X connect 5 0 2 0;
#X connect 7 0 0 0;
#X connect 7 0 8 0;
#X connect 10 0 7 0;
#X connect 11 0 7 0;
#X connect 12 0 11 0;
#X connect 12 0 20 0;
#X connect 13 0 11 0;
#X connect 14 0 5 0;
#X connect 16 0 7 0;
#X connect 17 0 18 0;
#X connect 18 0 7 0;
#X connect 19 0 1 0;
#X connect 20 0 18 0;
#X connect 21 0 18 0;
#X connect 22 0 18 0;
#X connect 23 0 18 0;
#X connect 24 0 18 0;
#X connect 25 0 18 0;
