#N canvas 30 171 686 518 10;
#X obj 140 88 t b b b;
#X msg 177 141 60000;
#X obj 177 191 /;
#X obj 177 218 i;
#X floatatom 258 209 5 0 0 0 - - -, f 5;
#X floatatom 258 236 5 0 0 0 - - -, f 5;
#X obj 140 271 metro;
#X obj 140 301 i;
#X obj 184 301 + 1;
#X msg 206 268 0;
#X floatatom 140 331 5 0 0 0 - - -, f 5;
#X floatatom 140 429 5 0 0 0 - - -, f 5;
#X obj 230 141 inlet;
#X obj 421 419 outlet;
#X text 242 157 bpm;
#X obj 140 44 inlet;
#X text 146 62 bang;
#X obj 58 42 inlet;
#X text 324 44 Inlet 1: bpm Inlet 2: bang Inlet 3: kill (0);
#X obj 140 386 + 1;
#X obj 140 360 % 8;
#X obj 289 419 % 2;
#X floatatom 350 420 5 0 0 0 - - -, f 5;
#X obj 140 469 outlet;
#X connect 0 0 6 0;
#X connect 0 1 1 0;
#X connect 1 0 2 0;
#X connect 2 0 3 0;
#X connect 2 0 4 0;
#X connect 3 0 5 0;
#X connect 3 0 6 1;
#X connect 6 0 7 0;
#X connect 7 0 8 0;
#X connect 7 0 10 0;
#X connect 8 0 7 1;
#X connect 9 0 7 1;
#X connect 10 0 20 0;
#X connect 11 0 21 0;
#X connect 11 0 23 0;
#X connect 12 0 2 1;
#X connect 15 0 0 0;
#X connect 17 0 6 0;
#X connect 19 0 11 0;
#X connect 20 0 19 0;
#X connect 21 0 22 0;
#X connect 22 0 13 0;
